REM DIRINDEX 1\2\5,1\2\6,1\2\7,1\2\8,1\3\9,1\3\10,1\3\11,1\4\12,1\4\13,1\4\14,1\4\15,1\4\16
REM DIRNAME folder01,folder02,folder03,folder04,folder05,folder06,folder07,folder08,folder09,folder10,folder11,folder12,folder13,folder14,folder15,folder16
TITLE ""
FILE "1200_2_sec01_0129_0143.mp3" MP3
  TRACK 01 AUDIO
    TITLE "0:"
    INDEX 01 00:00:00
  TRACK 02 AUDIO
    TITLE "10:cjc034_00264"
    INDEX 01 00:00:15
  TRACK 03 AUDIO
    TITLE "0:"
    INDEX 01 00:01:09
  TRACK 04 AUDIO
    TITLE "9:cjc034_00265"
    INDEX 01 00:01:19
  TRACK 05 AUDIO
    TITLE "0:"
    INDEX 01 00:02:14
  TRACK 06 AUDIO
    TITLE "10:cjc034_00266"
    INDEX 01 00:03:10
  TRACK 07 AUDIO
    TITLE "0:"
    INDEX 01 00:03:74
  TRACK 08 AUDIO
    TITLE "9:cjc034_00267"
    INDEX 01 00:04:03
  TRACK 09 AUDIO
    TITLE "0:"
    INDEX 01 00:05:16
  TRACK 10 AUDIO
    TITLE "10:cjc034_00268"
    INDEX 01 00:06:00
  TRACK 11 AUDIO
    TITLE "0:"
    INDEX 01 00:06:59
  TRACK 12 AUDIO
    TITLE "9:cjc034_00269"
    INDEX 01 00:06:67
  TRACK 13 AUDIO
    TITLE "0:"
    INDEX 01 00:08:07
  TRACK 14 AUDIO
    TITLE "10:cjc034_00270"
    INDEX 01 00:08:68
  TRACK 15 AUDIO
    TITLE "0:"
    INDEX 01 00:09:69
  TRACK 16 AUDIO
    TITLE "9:cjc034_00271"
    INDEX 01 00:10:00
  TRACK 17 AUDIO
    TITLE "0:"
    INDEX 01 00:11:11
  TRACK 18 AUDIO
    TITLE "10:cjc034_00272"
    INDEX 01 00:11:68
  TRACK 19 AUDIO
    TITLE "0:"
    INDEX 01 00:12:65
  TRACK 20 AUDIO
    TITLE "9:cjc034_00273"
    INDEX 01 00:12:71
  TRACK 21 AUDIO
    TITLE "0:"
    INDEX 01 00:14:19
  TRACK 22 AUDIO
    TITLE "10:cjc034_00274"
    INDEX 01 00:15:01
  TRACK 23 AUDIO
    TITLE "0:"
    INDEX 01 00:16:18
  TRACK 24 AUDIO
    TITLE "9:cjc034_00275"
    INDEX 01 00:16:20
  TRACK 25 AUDIO
    TITLE "0:"
    INDEX 01 00:17:45
  TRACK 26 AUDIO
    TITLE "10:cjc034_00276"
    INDEX 01 00:18:21
  TRACK 27 AUDIO
    TITLE "0:"
    INDEX 01 00:20:08
  TRACK 28 AUDIO
    TITLE "9:cjc034_00277"
    INDEX 01 00:20:20
  TRACK 29 AUDIO
    TITLE "0:"
    INDEX 01 00:21:25
  TRACK 30 AUDIO
    TITLE "10:cjc034_00278"
    INDEX 01 00:22:05
  TRACK 31 AUDIO
    TITLE "0:"
    INDEX 01 00:22:64
  TRACK 32 AUDIO
    TITLE "9:cjc034_00279"
    INDEX 01 00:22:72
  TRACK 33 AUDIO
    TITLE "0:"
    INDEX 01 00:24:06
  TRACK 34 AUDIO
    TITLE "10:cjc034_00280"
    INDEX 01 00:24:63
  TRACK 35 AUDIO
    TITLE "0:"
    INDEX 01 00:25:70
  TRACK 36 AUDIO
    TITLE "9:cjc034_00281"
    INDEX 01 00:25:74
  TRACK 37 AUDIO
    TITLE "0:"
    INDEX 01 00:26:73
  TRACK 38 AUDIO
    TITLE "10:cjc034_00282"
    INDEX 01 00:27:55
  TRACK 39 AUDIO
    TITLE "0:"
    INDEX 01 00:28:66
  TRACK 40 AUDIO
    TITLE "9:cjc034_00283"
    INDEX 01 00:28:68
  TRACK 41 AUDIO
    TITLE "0:"
    INDEX 01 00:30:14
  TRACK 42 AUDIO
    TITLE "10:cjc034_00284"
    INDEX 01 00:30:71
  TRACK 43 AUDIO
    TITLE "0:"
    INDEX 01 00:31:59
  TRACK 44 AUDIO
    TITLE "9:cjc034_00285"
    INDEX 01 00:31:67
  TRACK 45 AUDIO
    TITLE "0:"
    INDEX 01 00:32:68
  TRACK 46 AUDIO
    TITLE "10:cjc034_00286"
    INDEX 01 00:33:52
  TRACK 47 AUDIO
    TITLE "0:"
    INDEX 01 00:34:49
  TRACK 48 AUDIO
    TITLE "9:cjc034_00287"
    INDEX 01 00:34:59
  TRACK 49 AUDIO
    TITLE "0:"
    INDEX 01 00:35:59
  TRACK 50 AUDIO
    TITLE "10:cjc034_00288"
    INDEX 01 00:36:44
  TRACK 51 AUDIO
    TITLE "0:"
    INDEX 01 00:37:44
  TRACK 52 AUDIO
    TITLE "9:cjc034_00289"
    INDEX 01 00:37:48
  TRACK 53 AUDIO
    TITLE "0:"
    INDEX 01 00:38:69
  TRACK 54 AUDIO
    TITLE "10:cjc034_00290"
    INDEX 01 00:39:52
  TRACK 55 AUDIO
    TITLE "0:"
    INDEX 01 00:42:02
  TRACK 56 AUDIO
    TITLE "9:cjc034_00291"
    INDEX 01 00:42:08
  TRACK 57 AUDIO
    TITLE "0:"
    INDEX 01 00:43:11
  TRACK 58 AUDIO
    TITLE "10:cjc034_00292"
    INDEX 01 00:43:66
  TRACK 59 AUDIO
    TITLE "0:"
    INDEX 01 00:45:08
  TRACK 60 AUDIO
    TITLE "9:cjc034_00293"
    INDEX 01 00:45:12
  TRACK 61 AUDIO
    TITLE "0:"
    INDEX 01 00:46:41
